HIERARCHY
ROOT mixamorig:Hips
{
	OFFSET 0.000000 103.991501 0.000000
	CHANNELS 6 Xposition Yposition Zposition Xrotation Yrotation Zrotation
	JOINT mixamorig:Spine
	{
		OFFSET 0.000000 10.181602 0.131500
		CHANNELS 3 Xrotation Yrotation Zrotation
		JOINT mixamorig:Spine1
		{
			OFFSET 0.000000 10.083504 -1.000800
			CHANNELS 3 Xrotation Yrotation Zrotation
			JOINT mixamorig:Spine2
			{
				OFFSET 0.000000 9.100006 -1.373400
				CHANNELS 3 Xrotation Yrotation Zrotation
				JOINT mixamorig:Neck
				{
					OFFSET 0.000000 16.671707 -2.516200
					CHANNELS 3 Xrotation Yrotation Zrotation
					JOINT mixamorig:Head
					{
						OFFSET 0.000000 9.617905 1.685000
						CHANNELS 3 Xrotation Yrotation Zrotation
						JOINT mixamorig:HeadTop_End
						{
							OFFSET 0.000000 17.815201 2.585000
							CHANNELS 3 Xrotation Yrotation Zrotation
							End Site
							{
								OFFSET 0.000000 13.794495 0.000000
							}
						}
						JOINT mixamorig:LeftEye
						{
							OFFSET 3.067600 6.409500 9.283600
							CHANNELS 3 Xrotation Yrotation Zrotation
							End Site
							{
								OFFSET 0.000000 13.794495 0.000000
							}
						}
						JOINT mixamorig:RightEye
						{
							OFFSET -3.067600 6.409500 9.283500
							CHANNELS 3 Xrotation Yrotation Zrotation
							End Site
							{
								OFFSET 0.000000 13.794495 0.000000
							}
						}
					}
				}
				JOINT mixamorig:LeftShoulder
				{
					OFFSET 4.570400 10.945999 -2.628000
					CHANNELS 3 Xrotation Yrotation Zrotation
					JOINT mixamorig:LeftArm
					{
						OFFSET 10.592400 -0.524597 -2.232100
						CHANNELS 3 Xrotation Yrotation Zrotation
						JOINT mixamorig:LeftForeArm
						{
							OFFSET 27.841499 0.000000 0.000000
							CHANNELS 3 Xrotation Yrotation Zrotation
							JOINT mixamorig:LeftHand
							{
								OFFSET 28.328800 0.000000 0.000000
								CHANNELS 3 Xrotation Yrotation Zrotation
								JOINT mixamorig:LeftHandThumb1
								{
									OFFSET 2.466103 -1.576218 2.681689
									CHANNELS 3 Xrotation Yrotation Zrotation
									JOINT mixamorig:LeftHandThumb2
									{
										OFFSET 3.229782 -1.864716 1.864716
										CHANNELS 3 Xrotation Yrotation Zrotation
										JOINT mixamorig:LeftHandThumb3
										{
											OFFSET 2.652611 -1.531494 1.531488
											CHANNELS 3 Xrotation Yrotation Zrotation
											JOINT mixamorig:LeftHandThumb4
											{
												OFFSET 1.954605 -1.128494 1.128493
												CHANNELS 3 Xrotation Yrotation Zrotation
												End Site
												{
													OFFSET -0.000404 2.523392 0.000683
												}
											}
										}
									}
								}
								JOINT mixamorig:LeftHandIndex1
								{
									OFFSET 9.109299 -0.518112 2.259867
									CHANNELS 3 Xrotation Yrotation Zrotation
									JOINT mixamorig:LeftHandIndex2
									{
										OFFSET 3.676399 0.000000 0.000000
										CHANNELS 3 Xrotation Yrotation Zrotation
										JOINT mixamorig:LeftHandIndex3
										{
											OFFSET 2.883102 0.000000 0.000000
											CHANNELS 3 Xrotation Yrotation Zrotation
											JOINT mixamorig:LeftHandIndex4
											{
												OFFSET 2.392700 0.000000 0.000000
												CHANNELS 3 Xrotation Yrotation Zrotation
												End Site
												{
													OFFSET 0.000000 2.392700 0.001080
												}
											}
										}
									}
								}
								JOINT mixamorig:LeftHandMiddle1
								{
									OFFSET 9.533401 0.000000 0.000000
									CHANNELS 3 Xrotation Yrotation Zrotation
									JOINT mixamorig:LeftHandMiddle2
									{
										OFFSET 3.698196 0.000000 0.000000
										CHANNELS 3 Xrotation Yrotation Zrotation
										JOINT mixamorig:LeftHandMiddle3
										{
											OFFSET 2.950897 0.000000 0.000000
											CHANNELS 3 Xrotation Yrotation Zrotation
											JOINT mixamorig:LeftHandMiddle4
											{
												OFFSET 2.833900 0.000000 0.000000
												CHANNELS 3 Xrotation Yrotation Zrotation
												End Site
												{
													OFFSET 0.000000 2.833893 0.001278
												}
											}
										}
									}
								}
								JOINT mixamorig:LeftHandRing1
								{
									OFFSET 9.104500 -0.043060 -1.865119
									CHANNELS 3 Xrotation Yrotation Zrotation
									JOINT mixamorig:LeftHandRing2
									{
										OFFSET 3.153999 0.000000 0.000000
										CHANNELS 3 Xrotation Yrotation Zrotation
										JOINT mixamorig:LeftHandRing3
										{
											OFFSET 2.937698 0.000000 0.000000
											CHANNELS 3 Xrotation Yrotation Zrotation
											JOINT mixamorig:LeftHandRing4
											{
												OFFSET 2.647499 0.000000 0.000000
												CHANNELS 3 Xrotation Yrotation Zrotation
												End Site
												{
													OFFSET 0.000000 2.647507 0.001195
												}
											}
										}
									}
								}
								JOINT mixamorig:LeftHandPinky1
								{
									OFFSET 8.077797 -0.486984 -3.806321
									CHANNELS 3 Xrotation Yrotation Zrotation
									JOINT mixamorig:LeftHandPinky2
									{
										OFFSET 3.599998 0.000000 0.000000
										CHANNELS 3 Xrotation Yrotation Zrotation
										JOINT mixamorig:LeftHandPinky3
										{
											OFFSET 2.114197 0.000000 0.000000
											CHANNELS 3 Xrotation Yrotation Zrotation
											JOINT mixamorig:LeftHandPinky4
											{
												OFFSET 1.975700 0.000000 0.000000
												CHANNELS 3 Xrotation Yrotation Zrotation
												End Site
												{
													OFFSET 0.000000 1.975693 0.000892
												}
											}
										}
									}
								}
							}
						}
					}
				}
				JOINT mixamorig:RightShoulder
				{
					OFFSET -4.570000 10.946198 -2.628000
					CHANNELS 3 Xrotation Yrotation Zrotation
					JOINT mixamorig:RightArm
					{
						OFFSET -10.592800 -0.524796 -2.232100
						CHANNELS 3 Xrotation Yrotation Zrotation
						JOINT mixamorig:RightForeArm
						{
							OFFSET -27.841499 0.000000 0.000000
							CHANNELS 3 Xrotation Yrotation Zrotation
							JOINT mixamorig:RightHand
							{
								OFFSET -28.328800 0.000000 0.000000
								CHANNELS 3 Xrotation Yrotation Zrotation
								JOINT mixamorig:RightHandPinky1
								{
									OFFSET -8.076698 -0.486725 -3.806227
									CHANNELS 3 Xrotation Yrotation Zrotation
									JOINT mixamorig:RightHandPinky2
									{
										OFFSET -3.599998 0.000000 0.000000
										CHANNELS 3 Xrotation Yrotation Zrotation
										JOINT mixamorig:RightHandPinky3
										{
											OFFSET -2.114197 0.000000 0.000000
											CHANNELS 3 Xrotation Yrotation Zrotation
											JOINT mixamorig:RightHandPinky4
											{
												OFFSET -1.975700 0.000000 0.000000
												CHANNELS 3 Xrotation Yrotation Zrotation
												End Site
												{
													OFFSET 0.000000 1.975693 0.000919
												}
											}
										}
									}
								}
								JOINT mixamorig:RightHandRing1
								{
									OFFSET -9.103600 -0.043030 -1.865120
									CHANNELS 3 Xrotation Yrotation Zrotation
									JOINT mixamorig:RightHandRing2
									{
										OFFSET -3.153999 0.000000 0.000000
										CHANNELS 3 Xrotation Yrotation Zrotation
										JOINT mixamorig:RightHandRing3
										{
											OFFSET -2.937698 0.000000 0.000000
											CHANNELS 3 Xrotation Yrotation Zrotation
											JOINT mixamorig:RightHandRing4
											{
												OFFSET -2.647499 0.000000 0.000000
												CHANNELS 3 Xrotation Yrotation Zrotation
												End Site
												{
													OFFSET 0.000000 2.647507 0.001231
												}
											}
										}
									}
								}
								JOINT mixamorig:RightHandMiddle1
								{
									OFFSET -9.532501 0.000000 0.000000
									CHANNELS 3 Xrotation Yrotation Zrotation
									JOINT mixamorig:RightHandMiddle2
									{
										OFFSET -3.698196 0.000000 0.000000
										CHANNELS 3 Xrotation Yrotation Zrotation
										JOINT mixamorig:RightHandMiddle3
										{
											OFFSET -2.950897 0.000000 0.000000
											CHANNELS 3 Xrotation Yrotation Zrotation
											JOINT mixamorig:RightHandMiddle4
											{
												OFFSET -2.833900 0.000000 0.000000
												CHANNELS 3 Xrotation Yrotation Zrotation
												End Site
												{
													OFFSET 0.000000 2.833893 0.001318
												}
											}
										}
									}
								}
								JOINT mixamorig:RightHandIndex1
								{
									OFFSET -9.108299 -0.517853 2.259859
									CHANNELS 3 Xrotation Yrotation Zrotation
									JOINT mixamorig:RightHandIndex2
									{
										OFFSET -3.676399 0.000000 0.000000
										CHANNELS 3 Xrotation Yrotation Zrotation
										JOINT mixamorig:RightHandIndex3
										{
											OFFSET -2.883102 0.000000 0.000000
											CHANNELS 3 Xrotation Yrotation Zrotation
											JOINT mixamorig:RightHandIndex4
											{
												OFFSET -2.392700 0.000000 0.000000
												CHANNELS 3 Xrotation Yrotation Zrotation
												End Site
												{
													OFFSET 0.000000 2.392700 0.001113
												}
											}
										}
									}
								}
								JOINT mixamorig:RightHandThumb1
								{
									OFFSET -2.464798 -1.573944 2.681868
									CHANNELS 3 Xrotation Yrotation Zrotation
									JOINT mixamorig:RightHandThumb2
									{
										OFFSET -3.229782 -1.864716 1.864716
										CHANNELS 3 Xrotation Yrotation Zrotation
										JOINT mixamorig:RightHandThumb3
										{
											OFFSET -2.652542 -1.531448 1.531448
											CHANNELS 3 Xrotation Yrotation Zrotation
											JOINT mixamorig:RightHandThumb4
											{
												OFFSET -1.954605 -1.128494 1.128493
												CHANNELS 3 Xrotation Yrotation Zrotation
												End Site
												{
													OFFSET 0.000412 2.523392 0.000704
												}
											}
										}
									}
								}
							}
						}
					}
				}
			}
		}
	}
	JOINT mixamorig:LeftUpLeg
	{
		OFFSET 8.207800 -6.751701 -1.599600
		CHANNELS 3 Xrotation Yrotation Zrotation
		JOINT mixamorig:LeftLeg
		{
			OFFSET 0.000000 -44.370499 0.284600
			CHANNELS 3 Xrotation Yrotation Zrotation
			JOINT mixamorig:LeftFoot
			{
				OFFSET 0.000000 -44.427898 -2.982200
				CHANNELS 3 Xrotation Yrotation Zrotation
				JOINT mixamorig:LeftToeBase
				{
					OFFSET 0.000000 -8.728700 10.710600
					CHANNELS 3 Xrotation Yrotation Zrotation
					JOINT mixamorig:LeftToe_End
					{
						OFFSET 0.000000 -0.000700 9.278099
						CHANNELS 3 Xrotation Yrotation Zrotation
						End Site
						{
							OFFSET 0.000000 9.278100 0.000000
						}
					}
				}
			}
		}
	}
	JOINT mixamorig:RightUpLeg
	{
		OFFSET -8.207800 -6.751701 -1.599600
		CHANNELS 3 Xrotation Yrotation Zrotation
		JOINT mixamorig:RightLeg
		{
			OFFSET 0.000000 -44.370499 0.286200
			CHANNELS 3 Xrotation Yrotation Zrotation
			JOINT mixamorig:RightFoot
			{
				OFFSET 0.000000 -44.427700 -2.983800
				CHANNELS 3 Xrotation Yrotation Zrotation
				JOINT mixamorig:RightToeBase
				{
					OFFSET 0.000000 -8.728700 10.710600
					CHANNELS 3 Xrotation Yrotation Zrotation
					JOINT mixamorig:RightToe_End
					{
						OFFSET 0.000000 -0.000700 9.278100
						CHANNELS 3 Xrotation Yrotation Zrotation
						End Site
						{
							OFFSET 0.000000 9.278100 0.000000
						}
					}
				}
			}
		}
	}
}
MOTION
Frames: 4
Frame Time: 0.033333
-8.758118 102.821114 23.232103 -143.202279 -83.751862 -146.340245 3.044107 3.149968 4.466697 1.096498 0.659974 2.795311 1.095764 0.696319 2.802675 8.341223 -9.776075 -1.844144 3.869025 -20.526376 -2.053442 -0.000001 0.000000 -0.000001 -0.000001 0.000000 -0.000001 -0.000001 0.000000 -0.000001 1.630143 -10.041345 -9.686600 -9.956845 10.562288 -74.069064 -0.000007 -8.761015 -0.000003 -17.612430 -5.037715 1.481332 -0.663001 2.160317 4.832504 11.394679 27.533920 16.524743 -13.819403 3.457394 9.024643 0.000000 0.000000 -0.000000 -0.415381 -1.061270 -10.063303 0.270044 1.759847 -17.446958 0.058714 0.828164 -8.109195 0.000001 -0.000003 -0.000000 -0.163175 2.592853 -18.083966 0.289116 1.819420 -18.057746 0.322103 1.917529 -19.068934 -0.000000 -0.000001 -0.000001 0.003493 3.394862 -22.766865 0.395097 2.116821 -21.142649 0.290360 1.823166 -18.096400 0.000000 0.000000 -0.000000 0.139974 4.636524 -28.307477 0.276117 1.779029 -17.643453 0.248148 1.688584 -16.718751 0.000001 0.000003 0.000000 2.564733 9.899166 10.783424 6.773852 22.022823 53.023141 -0.000005 20.036905 0.000006 2.704167 -1.167568 -8.383267 0.878316 -5.070581 27.714577 0.215561 -1.401898 17.482566 0.194017 -1.331566 16.578964 -0.000000 0.000000 0.000003 0.399493 -4.056850 22.561667 0.312389 -1.678533 21.083385 0.229152 -1.444311 18.029912 0.000004 0.000000 0.000002 0.095717 -3.154759 17.627897 0.217244 -1.407196 17.550678 0.242684 -1.485239 18.559176 -0.000001 -0.000002 -0.000002 0.493342 0.090820 10.008820 0.213851 -1.396461 17.412662 0.046092 -0.654311 8.059085 -0.000003 -0.000001 -0.000001 -1.665256 -0.174480 -4.219046 13.469939 -33.961371 -16.166960 -13.185559 1.220771 -13.721900 0.000001 0.000000 0.000003 -7.215475 2.146572 -4.039016 22.248382 -10.091205 8.811741 -9.552861 11.203857 2.673365 -5.553993 0.000013 0.000003 0.000001 -0.000001 0.000000 -29.858326 -44.064480 -30.832126 27.009691 -10.420462 1.425908 -12.057729 13.361376 17.196557 -4.273587 0.000019 -0.000000 -0.000000 0.000003 0.000000 
-8.342951 102.896835 22.345232 -158.388453 -79.803493 -161.499809 2.988445 2.980588 4.353298 1.081239 0.637450 2.818347 1.080310 0.675160 2.825404 8.071592 -9.436821 -2.006517 3.045766 -19.817960 -2.048853 0.000001 0.000003 -0.000001 0.000001 0.000003 -0.000001 0.000001 0.000003 -0.000001 1.313743 -10.718206 -10.518726 -11.663275 11.004243 -71.876560 -0.000000 -8.513632 0.000004 -18.064180 -6.487900 2.825754 -0.663006 2.160313 4.832507 11.219072 27.378588 16.706004 -13.811035 3.483618 9.024081 0.000000 0.000001 0.000004 -0.304557 -1.078136 -9.236189 0.269547 1.758229 -17.430291 0.058455 0.826483 -8.092553 -0.000000 -0.000000 0.000002 -0.151477 2.575398 -17.508382 0.286389 1.811010 -17.971539 0.319208 1.909121 -18.982158 -0.000001 0.000001 -0.000003 0.045747 3.466387 -22.235025 0.392923 2.111207 -21.083582 0.288470 1.817386 -18.037015 -0.000001 -0.000000 0.000002 0.309907 4.823430 -27.940897 0.275610 1.777421 -17.627105 0.248126 1.688532 -16.718044 -0.000000 0.000001 0.000004 2.418958 10.178645 11.339670 7.393452 21.123618 53.071745 0.000012 19.379936 -0.000016 3.353822 -1.355427 -6.709066 0.948575 -5.170751 27.673632 0.215446 -1.401538 17.477911 0.193921 -1.331236 16.574706 -0.000001 -0.000001 0.000000 0.361934 -3.966879 22.609253 0.311706 -1.676781 21.060337 0.228574 -1.442549 18.007013 0.000004 -0.000002 -0.000001 0.100641 -3.167350 17.535939 0.217197 -1.407094 17.549433 0.242659 -1.485154 18.557902 0.000003 -0.000002 -0.000002 0.451661 0.151415 9.949035 0.214016 -1.396969 17.419035 0.046168 -0.654797 8.065075 0.000002 -0.000000 0.000001 -1.665253 -0.174480 -4.219047 13.577906 -33.123812 -16.049922 -13.140936 0.895184 -13.605026 -0.000000 -0.000001 0.000001 -6.904974 1.605267 -4.064877 21.750874 -10.036475 9.282061 -9.193162 16.188161 1.900967 -5.633678 0.000001 -0.000003 -0.000000 0.000000 -0.000000 -32.046244 -45.793270 -33.042901 29.264075 -8.438198 2.253364 -12.303594 12.420862 12.417558 -6.256207 0.000011 0.000004 0.000000 -0.000001 -0.000000 
-7.853565 102.896370 21.303553 -164.837368 -75.563762 -167.982451 2.943285 2.907553 4.330777 1.072508 0.618717 2.846990 1.071332 0.657726 2.853765 7.731454 -9.143789 -2.234914 2.205215 -19.275851 -1.906727 0.000000 0.000000 0.000000 0.000000 0.000000 0.000000 0.000000 0.000000 0.000000 1.022447 -11.152516 -11.559921 -11.837258 9.028270 -70.411293 0.000005 -8.127162 0.000003 -18.196384 -7.986963 4.050270 -0.663002 2.160315 4.832504 11.128245 27.267657 16.818728 -13.805906 3.498800 9.024924 0.000001 -0.000001 0.000006 -0.237193 -1.090651 -8.715411 0.269407 1.757772 -17.425495 0.058392 0.825987 -8.087748 -0.000000 -0.000001 0.000003 -0.144311 2.563673 -17.138951 0.284498 1.805151 -17.911476 0.317195 1.903278 -18.921736 -0.000000 0.000001 -0.000000 0.067949 3.503217 -21.900382 0.391400 2.107274 -21.042534 0.287173 1.813384 -17.995781 -0.000001 0.000000 0.000002 0.413836 4.940284 -27.729246 0.275497 1.777022 -17.622913 0.248032 1.688222 -16.715138 -0.000000 -0.000001 0.000001 2.315784 10.401436 11.692494 7.953641 20.360265 53.452948 0.000018 18.529803 0.000009 4.010298 -1.526220 -4.671929 0.988161 -5.243934 27.446378 0.215254 -1.400901 17.469896 0.193724 -1.330598 16.566747 -0.000003 -0.000002 -0.000002 0.288586 -3.787086 22.324972 0.310711 -1.674185 21.026176 0.227731 -1.439948 17.973214 0.000000 0.000002 0.000001 0.080774 -3.088746 17.091900 0.216838 -1.405950 17.534655 0.242268 -1.484017 18.543180 0.000001 0.000000 -0.000001 0.348828 0.370240 9.389429 0.214086 -1.397205 17.422064 0.046195 -0.655046 8.067918 0.000004 -0.000001 -0.000001 -1.665252 -0.174481 -4.219048 13.678308 -32.019558 -15.993417 -13.350173 0.056598 -13.412425 0.000000 -0.000000 0.000001 -6.823794 0.589589 -3.888711 21.629126 -9.991596 9.527530 -8.852285 21.928939 1.022195 -5.625123 -0.000001 0.000001 0.000001 -0.000000 0.000000 -32.902421 -47.016417 -33.843065 30.729349 -5.479074 2.531572 -11.475726 7.862262 6.582115 -8.389180 0.000005 0.000001 0.000000 0.000001 0.000000 
-7.277278 102.873764 20.261787 -168.287843 -71.262287 -171.584625 2.908085 2.905742 4.398975 1.066688 0.616294 2.880734 1.065288 0.659032 2.886498 7.361065 -8.911174 -2.488212 1.356607 -18.881788 -1.634708 0.000000 0.000001 -0.000000 0.000000 0.000001 -0.000000 0.000000 0.000001 -0.000000 0.757840 -11.346802 -12.724650 -11.216590 5.663055 -69.246336 -0.000006 -7.776962 0.000011 -17.930625 -9.395344 5.208411 -0.663002 2.160315 4.832504 11.082650 27.108189 16.887959 -13.803566 3.504747 9.024078 -0.000001 0.000000 -0.000000 -0.217478 -1.103803 -8.511311 0.269476 1.757988 -17.427888 0.058427 0.826236 -8.090128 0.000000 -0.000002 0.000001 -0.144258 2.550291 -16.995913 0.283351 1.801547 -17.874378 0.315960 1.899684 -18.884577 -0.000000 0.000000 -0.000000 0.070399 3.502753 -21.774532 0.390535 2.104992 -21.018604 0.286409 1.811032 -17.971812 0.000001 -0.000000 0.000001 0.455848 4.989189 -27.680180 0.275514 1.777190 -17.624584 0.247892 1.687713 -16.709740 -0.000001 0.000001 -0.000001 2.245654 10.582515 11.888223 8.491704 19.741405 54.093196 0.000005 17.534899 -0.000027 4.667906 -1.657055 -2.367549 1.061678 -5.398565 27.026111 0.214984 -1.400047 17.458682 0.193476 -1.329742 16.555766 0.000001 0.000001 0.000001 0.196860 -3.546707 21.600885 0.309291 -1.670473 20.977534 0.226519 -1.436217 17.925058 0.000000 0.000001 -0.000000 0.054801 -2.972475 16.300702 0.216259 -1.404123 17.511273 0.241671 -1.482208 18.519855 0.000002 0.000000 0.000003 0.194005 0.780435 8.262246 0.214141 -1.397363 17.424108 0.046220 -0.655225 8.070337 -0.000002 0.000001 0.000001 -1.665254 -0.174480 -4.219049 13.759164 -30.563263 -16.064241 -13.786254 -1.030907 -13.164469 -0.000001 -0.000001 -0.000002 -6.842695 -0.748125 -3.324416 21.489874 -9.937977 9.165176 -8.461280 27.920910 0.333392 -5.360360 -0.000016 0.000001 -0.000000 0.000000 0.000000 -31.555115 -48.104722 -32.426784 29.937085 -0.845875 2.416593 -10.133341 -0.596609 2.495678 -9.393784 -0.000010 0.000000 -0.000000 0.000001 0.000000 
